<svg width="262.583008" height="293.794067" viewBox="0 0 262.583 293.794" fill="none"
	 xmlns="http://www.w3.org/2000/svg">
	<desc>
		Created with Pixso.
	</desc>
	<rect x="25.791016" y="0.000122" rx="23.000000" width="227.724823" height="293.793945" fill="#003D43"/>
	<rect x="232.725586" y="84.225098" rx="14.928471" width="29.856941" height="57.521122" fill="#003D43"/>
	<rect x="13.359375" y="0.000122" rx="23.000000" width="227.724823" height="293.793945" fill="#00535B"/>
	<rect x="223.658203" y="61.592529" rx="14.928471" width="29.856941" height="57.521122" fill="#00535B"/>
	<path d="M204.725 0L23 0C10.2979 0 0 10.2975 0 23L0 270.794C0 283.496 10.2979 293.794 23 293.794L204.725 293.794C217.428 293.794 227.725 283.496 227.725 270.794L227.725 94.8347C228.054 94.8563 228.386 94.8674 228.721 94.8674C236.966 94.8674 243.649 88.1837 243.649 79.939L243.649 52.2748C243.649 44.03 236.966 37.3463 228.721 37.3463C228.386 37.3463 228.054 37.3573 227.725 37.379L227.725 23C227.725 10.2975 217.428 0 204.725 0L204.725 0Z"
		  fill-rule="evenodd" fill="url(#paint_linear_20_289_0)" fill-opacity="1.000000"/>
	<g opacity="0.170000">
		<rect x="77.541992" y="51.357300" width="120.741699" height="12.255859" fill="#FFFFFF"/>
		<rect x="77.541992" y="162.358276" width="120.741699" height="12.255859" fill="#FFFFFF"/>
		<path d="M25.6045 168.486C25.6045 158.568 33.6455 150.527 43.5635 150.527C53.4824 150.527 61.5234 158.568 61.5234 168.486C61.5234 178.405 53.4824 186.445 43.5635 186.445C33.6455 186.445 25.6045 178.405 25.6045 168.486L25.6045 168.486M37.2285 162.151C38.9775 160.402 41.0898 159.527 43.5635 159.527C46.0381 159.527 48.1494 160.402 49.8984 162.151C51.6484 163.901 52.5234 166.012 52.5234 168.486C52.5234 170.96 51.6484 173.072 49.8984 174.821C48.1494 176.571 46.0381 177.445 43.5635 177.445C41.0898 177.445 38.9775 176.571 37.2285 174.821C35.4795 173.072 34.6045 170.96 34.6045 168.486C34.6045 166.012 35.4795 163.901 37.2285 162.151L37.2285 162.151Z"
			  fill-rule="evenodd" fill="#FFFFFF"/>
		<rect x="77.541992" y="217.858765" width="120.741699" height="12.255859" fill="#FFFFFF"/>
		<path d="M25.6045 223.987C25.6045 214.068 33.6455 206.027 43.5635 206.027C53.4824 206.027 61.5234 214.068 61.5234 223.987C61.5234 233.905 53.4824 241.946 43.5635 241.946C33.6455 241.946 25.6045 233.905 25.6045 223.987L25.6045 223.987M37.2285 217.652C38.9775 215.902 41.0898 215.027 43.5635 215.027C46.0381 215.027 48.1494 215.902 49.8984 217.652C51.6484 219.401 52.5234 221.513 52.5234 223.987C52.5234 226.461 51.6484 228.572 49.8984 230.322C48.1494 232.071 46.0381 232.946 43.5635 232.946C41.0898 232.946 38.9775 232.071 37.2285 230.322C35.4795 228.572 34.6045 226.461 34.6045 223.987C34.6045 221.513 35.4795 219.401 37.2285 217.652L37.2285 217.652Z"
			  fill-rule="evenodd" fill="#FFFFFF"/>
		<rect x="77.541992" y="106.857788" width="120.741699" height="12.255859" fill="#FFFFFF"/>
		<path d="M25.6045 112.986C25.6045 103.067 33.6455 95.0265 43.5635 95.0265C53.4824 95.0265 61.5234 103.067 61.5234 112.986C61.5234 122.904 53.4824 130.945 43.5635 130.945C33.6455 130.945 25.6045 122.904 25.6045 112.986L25.6045 112.986M37.2285 106.651C38.9775 104.901 41.0898 104.026 43.5635 104.026C46.0381 104.026 48.1494 104.901 49.8984 106.651C51.6484 108.4 52.5234 110.512 52.5234 112.986C52.5234 115.46 51.6484 117.571 49.8984 119.321C48.1494 121.07 46.0381 121.945 43.5635 121.945C41.0898 121.945 38.9775 121.07 37.2285 119.321C35.4795 117.571 34.6045 115.46 34.6045 112.986C34.6045 110.512 35.4795 108.4 37.2285 106.651L37.2285 106.651Z"
			  fill-rule="evenodd" fill="#FFFFFF"/>
	</g>
	<g filter="url(#filter_20_302_dd)">
		<path d="M51.6777 224.734C51.9717 225.928 52.1279 227.177 52.1279 228.463C52.1279 237.008 45.2227 243.935 36.7041 243.935C28.1846 243.935 21.2793 237.008 21.2793 228.463C21.2793 219.918 28.1846 212.991 36.7041 212.991C38.0234 212.991 39.3037 213.158 40.5264 213.47L54.9824 199.015C55.5635 198.433 56.2061 197.959 56.8867 197.593L36.125 176.706C31.8301 172.411 31.8301 165.289 36.125 160.89C40.4189 156.596 47.4365 156.596 51.7305 160.89L68.3691 177.628C69.2773 176.265 70.2988 174.905 71.4277 173.564C86.4053 155.863 109.763 128.421 128.825 105.902C148.935 82.231 175.015 64.3206 199.419 57.6173C199.629 57.6173 199.733 57.4078 199.943 57.4078C205.809 56.0461 209.16 59.5026 207.693 65.4728C207.693 65.6823 207.484 65.787 207.484 65.9965C200.781 90.5054 182.976 116.795 159.409 137.114C137.1 156.386 109.972 179.743 92.2715 194.616C90.9648 195.74 89.6289 196.756 88.2812 197.661L103.786 213.26C108.081 217.763 108.081 224.781 103.786 229.075C99.4922 233.37 92.4746 233.37 88.1807 229.075L67.5879 208.359C67.2246 209.024 66.7588 209.652 66.1895 210.222L51.6777 224.734Z"
			  clip-rule="evenodd" fill-rule="evenodd" fill="url(#paint_linear_20_302_0)" fill-opacity="1.000000"/>
	</g>
	<rect x="36.344727" y="54.078735" width="18.085630" height="19.860893" fill="#2B95A0"/>
	<path d="M45.3877 39.1821L28.2549 57.8025L62.5205 57.8025L45.3877 39.1821Z" fill-rule="evenodd" fill="#2B95A0"/>
	<defs>
		<filter id="filter_20_302_dd" x="3.279297" y="46.112305" width="222.757812" height="222.822510"
				filterUnits="userSpaceOnUse" color-interpolation-filters="sRGB">
			<feFlood flood-opacity="0" result="BackgroundImageFix"/>
			<feColorMatrix in="SourceAlpha" type="matrix" values="0 0 0 0 0 0 0 0 0 0 0 0 0 0 0 0 0 0 127 0"/>
			<feOffset dx="0" dy="7"/>
			<feGaussianBlur stdDeviation="6"/>
			<feColorMatrix type="matrix" values="0 0 0 0 0 0 0 0 0 0 0 0 0 0 0 0 0 0 0.19 0"/>
			<feBlend mode="normal" in2="BackgroundImageFix" result="effect_dropShadow_1"/>
			<feBlend mode="normal" in="SourceGraphic" in2="effect_dropShadow_1" result="shape"/>
			<feColorMatrix in="SourceAlpha" type="matrix" values="0 0 0 0 0 0 0 0 0 0 0 0 0 0 0 0 0 0 127 0"
						   result="hardAlpha"/>
			<feOffset dx="0" dy="-5"/>
			<feGaussianBlur stdDeviation="8.66667"/>
			<feComposite in2="hardAlpha" operator="arithmetic" k2="-1" k3="1"/>
			<feColorMatrix type="matrix" values="0 0 0 0 0.77255 0 0 0 0 0.64706 0 0 0 0 0 0 0 0 0.17 0"/>
			<feBlend mode="normal" in2="shape" result="effect_innerShadow_2"/>
		</filter>
		<linearGradient id="paint_linear_20_289_0" x1="-22.224174" y1="-7.230370" x2="243.649078" y2="293.793915"
						gradientUnits="userSpaceOnUse">
			<stop stop-color="#008B99"/>
			<stop offset="1.000000" stop-color="#006974"/>
		</linearGradient>
		<linearGradient id="paint_linear_20_302_0" x1="368.029755" y1="261.623627" x2="245.356323" y2="440.204681"
						gradientUnits="userSpaceOnUse">
			<stop stop-color="#F3CA00"/>
			<stop offset="0.992366" stop-color="#F0E700"/>
		</linearGradient>
	</defs>
</svg>
